# xmcd
#
# Track frame offsets:
#	225
#	19125
#	41438
#	59853
#	84598
#	105283
#	120605
#	140546
#	158621
#	175251
#	195282
#
# Disc length: 2806 seconds
#
# Revision: 0
# Processed by: cddbd v1.5PL3 Copyright (c) Steve Scherf et al.
# Submitted via: dBpowerAMP V4.0
#
DISCID=890af30b
DTITLE=Wendy Rich - Feels Like I'm Drowning
DYEAR=1998
DGENRE=Blues
TTITLE0=Don't Mean a Thing
TTITLE1=Let's Make Love
TTITLE2=Can't Help But Wonder
TTITLE3=Self Destruction Blues
TTITLE4=Call It Inspiration
TTITLE5=My Baby's Gonna Be Mad
TTITLE6=Working Woman Blues
TTITLE7=Tongue Tied
TTITLE8=Goodbye
TTITLE9=Here I Am
TTITLE10=Feels Like I'm Drowning
EXTD=
EXTT0=
EXTT1=
EXTT2=
EXTT3=
EXTT4=
EXTT5=
EXTT6=
EXTT7=
EXTT8=
EXTT9=
EXTT10=
PLAYORDER=
